<?xml version="1.0" encoding="UTF-8"?><svg id="Layer_2" xmlns="http://www.w3.org/2000/svg" viewBox="0 0 114.22 22.84"><defs><style>.cls-1{fill:#fff;stroke-width:0px;}</style></defs><g id="Layer_1-2"><polygon id="L.2" class="cls-1" points="3.82 .01 2.86 .01 2.86 12.5 14.65 12.5 14.65 11.53 3.82 11.53 3.82 .01"/><polygon id="L.1" class="cls-1" points=".96 .01 0 .01 0 15.38 14.65 15.38 14.65 14.41 .96 14.41 .96 .01"/><path id="U.2" class="cls-1" d="M30.56,12.93c1.86,0,3.1-.38,3.79-1.17.62-.71.7-1.63.7-2.51V.01h-.96v9.24c0,1.26,0,2.71-3.54,2.71-3.27,0-3.54-1.23-3.54-2.71V.01h-.96v9.24c0,1.91.55,3.68,4.5,3.68h0Z"/><path id="U.1" class="cls-1" d="M36.95,9.25c0,3.72-2.16,5.61-6.42,5.61-5.27,0-6.37-3.05-6.37-5.61V.01h-.96v9.24c0,4.18,2.67,6.56,7.33,6.56,2.75,0,7.38-.85,7.38-6.56V.01h-.96v9.24Z"/><rect id="M1.1" class="cls-1" x="113.26" y=".01" width=".96" height="15.37"/><rect id="M1.0" class="cls-1" x="97.52" y=".01" width=".96" height="15.37"/><polygon id="M2.1" class="cls-1" points="105.88 6.88 101.12 .01 99.94 .01 105.88 8.56 110.58 1.77 111.81 0 110.63 0 105.88 6.88"/><polygon id="M2.0" class="cls-1" points="105.88 12.1 101.18 5.23 100.39 5.23 100.39 15.38 101.34 15.38 101.34 7.2 105.77 13.67 105.87 13.81 110.4 7.2 110.4 15.39 111.35 15.39 111.35 5.23 110.58 5.23 105.88 12.1"/><polygon id="E.1" class="cls-1" points="75.83 .98 88.47 .98 88.47 .01 74.86 .01 74.86 15.38 88.8 15.38 88.8 14.41 75.83 14.41 75.83 .98"/><polygon id="E.2.0" class="cls-1" points="88.47 3.87 88.47 2.91 77.73 2.91 77.73 6.49 83.85 6.49 83.85 5.52 78.69 5.52 78.69 3.88 88.47 3.87"/><polygon id="E.2.1" class="cls-1" points="78.69 9.37 83.86 9.37 83.86 8.4 77.73 8.4 77.73 12.5 88.8 12.5 88.8 11.53 83.75 11.53 78.69 11.53 78.69 9.37"/><polygon id="X_top" class="cls-1" points="60.37 1.17 61.36 .01 60.08 .01 56.56 4.17 53.23 .06 53.2 .01 51.98 .01 56.54 5.67 60.37 1.17"/><polygon id="X_right" class="cls-1" points="65.12 .01 63.84 .01 57.85 7.11 63.52 13.92 64.74 15.38 65.99 15.38 59.1 7.12 65.12 .01"/><polygon id="X_Bottom" class="cls-1" points="51.68 14.41 50.85 15.38 52.12 15.38 56.54 10.14 60.89 15.38 62.13 15.38 56.54 8.64 51.68 14.41"/><path id="X_Left" class="cls-1" d="M49.31.01h-1.25l5.9,7.1-6.81,8.08-.17.2h1.25l6.98-8.27L49.31.01Z"/><path class="cls-1" d="M43.52,20.66c-.06.15-.14.28-.26.39s-.25.19-.42.25-.36.09-.58.09h-.81v1.37h-.69v-3.83h1.5c.22,0,.41.03.58.09s.31.14.42.25c.11.11.2.24.26.39s.09.32.09.5-.03.35-.09.5ZM42.74,19.72c-.11-.12-.28-.17-.51-.17h-.78v1.24h.78c.23,0,.41-.06.51-.17.11-.11.16-.26.16-.45s-.05-.33-.16-.45Z"/><path class="cls-1" d="M45.57,21.32h-.85v1.45h-.7v-3.83h1.62c.23,0,.42.03.59.1s.31.16.42.27c.11.11.19.24.24.38.05.14.08.29.08.45,0,.26-.06.48-.19.67-.13.19-.3.32-.51.4l.7,1.57h-.76l-.64-1.45ZM46.22,19.9c-.03-.07-.07-.13-.12-.19s-.12-.1-.2-.13-.17-.05-.26-.05h-.92v1.15h.93c.2,0,.35-.05.46-.15.11-.1.16-.24.16-.42,0-.08-.01-.15-.04-.22Z"/><path class="cls-1" d="M50.41,21.3c-.01.14-.03.28-.07.41-.04.13-.09.25-.15.37s-.15.23-.25.33c-.15.15-.32.26-.51.33-.19.07-.39.11-.59.11s-.4-.04-.59-.11c-.19-.07-.36-.18-.51-.33-.1-.1-.19-.21-.25-.33s-.11-.24-.15-.37-.06-.27-.07-.41-.02-.29-.02-.45,0-.31.02-.45.03-.28.07-.41.09-.25.15-.37.15-.23.25-.33c.15-.15.32-.26.51-.33.19-.07.39-.11.59-.11s.4.04.59.11c.19.07.36.18.51.33.1.1.19.21.25.33s.11.24.15.37c.04.13.06.27.07.41s.02.29.02.45,0,.3-.02.45ZM49.71,20.57c0-.1-.01-.2-.03-.3-.02-.1-.05-.19-.08-.28-.04-.09-.09-.17-.15-.24-.08-.08-.17-.15-.28-.19-.11-.04-.22-.06-.33-.06s-.22.02-.33.06c-.11.04-.2.11-.28.19-.06.07-.12.15-.15.24-.04.09-.07.18-.08.28-.02.1-.03.2-.03.3,0,.1,0,.19,0,.28s0,.18,0,.28c0,.1.01.2.03.3.02.1.05.19.08.28.04.09.09.17.15.24.08.08.17.15.28.19.11.04.22.06.33.06s.22-.02.33-.06c.11-.04.2-.11.28-.19.06-.07.12-.15.15-.24.04-.09.07-.18.08-.28.02-.1.03-.2.03-.3,0-.1,0-.19,0-.28s0-.18,0-.28Z"/><path class="cls-1" d="M53.76,20.66c-.06.15-.14.28-.26.39-.11.11-.26.19-.42.25-.17.06-.36.09-.58.09h-.81v1.37h-.69v-3.83h1.5c.22,0,.41.03.58.09.17.06.31.14.42.25.11.11.2.24.26.39.06.15.09.32.09.5s-.03.35-.09.5ZM52.98,19.72c-.11-.12-.28-.17-.51-.17h-.78v1.24h.78c.23,0,.41-.06.51-.17s.16-.26.16-.45-.05-.33-.16-.45Z"/><path class="cls-1" d="M54.25,18.93h2.73v.63h-2.03v.89h1.79v.63h-1.79v1.05h2.03v.63h-2.73v-3.83Z"/><path class="cls-1" d="M59.09,21.32h-.85v1.45h-.7v-3.83h1.62c.23,0,.42.03.59.1s.31.16.42.27.19.24.24.38c.05.14.08.29.08.45,0,.26-.06.48-.19.67-.13.19-.3.32-.51.4l.7,1.57h-.76l-.64-1.45ZM59.74,19.9c-.03-.07-.07-.13-.12-.19-.05-.05-.12-.1-.2-.13s-.17-.05-.27-.05h-.92v1.15h.93c.2,0,.35-.05.46-.15.11-.1.16-.24.16-.42,0-.08-.01-.15-.04-.22Z"/><path class="cls-1" d="M62.41,22.77h-.7v-3.18h-1.14v-.65h2.97v.65h-1.14v3.18Z"/><path class="cls-1" d="M63.91,18.93h.71v3.83h-.71v-3.83Z"/><path class="cls-1" d="M65.41,18.93h2.73v.63h-2.03v.89h1.79v.63h-1.79v1.05h2.03v.63h-2.73v-3.83Z"/><path class="cls-1" d="M71.4,22.09c-.06.13-.14.24-.23.34-.15.15-.33.25-.54.32-.21.06-.44.09-.67.09-.21,0-.41-.03-.61-.09-.2-.06-.38-.16-.54-.31-.12-.1-.21-.23-.29-.39-.08-.15-.11-.32-.11-.51h.71c0,.09.02.18.06.26s.09.15.14.21c.08.08.18.14.3.17.12.03.23.04.34.04.13,0,.26-.02.38-.05.12-.03.21-.08.29-.16.04-.05.08-.1.11-.15.03-.05.04-.13.04-.22,0-.14-.05-.25-.14-.32-.09-.07-.2-.12-.32-.14-.13-.03-.27-.04-.43-.05-.15-.01-.3-.03-.42-.05-.13-.02-.26-.06-.38-.11-.12-.05-.22-.13-.31-.21-.09-.09-.16-.19-.21-.32s-.08-.27-.08-.42.03-.29.09-.42.14-.24.24-.34c.13-.13.29-.23.49-.3s.41-.11.64-.11c.21,0,.4.03.59.09.19.06.35.16.48.28.12.11.21.23.28.37.07.14.11.29.11.45h-.71c0-.07-.02-.14-.05-.2-.03-.07-.07-.13-.12-.18-.06-.06-.15-.12-.26-.15s-.22-.05-.32-.05-.22.01-.33.04c-.11.03-.21.08-.29.17-.04.04-.07.09-.09.14-.02.05-.04.11-.04.18,0,.13.04.22.11.29s.17.11.28.13c.12.02.26.03.41.05.15.01.29.03.42.05.14.02.28.06.41.12.13.06.24.13.34.22.1.09.17.2.23.33.06.13.08.28.08.44,0,.18-.03.34-.09.46Z"/></g></svg>